<?xml version="1.0" encoding="iso-8859-1"?>
<!-- Generator: Adobe Illustrator 18.0.0, SVG Export Plug-In . SVG Version: 6.00 Build 0)  -->
<!DOCTYPE svg PUBLIC "-//W3C//DTD SVG 1.1//EN" "http://www.w3.org/Graphics/SVG/1.1/DTD/svg11.dtd">
<svg xmlns="http://www.w3.org/2000/svg" xmlns:xlink="http://www.w3.org/1999/xlink" version="1.1" id="Capa_1" x="0px" y="0px" viewBox="0 0 296.438 296.438" style="enable-background:new 0 0 296.438 296.438;" xml:space="preserve" width="512px" height="512px">
<path d="M227.275,0H69.829c-7.718,0-13.61,4.908-13.61,12.627v269.836c0,5.039,2.522,9.689,6.91,12.168s9.61,2.404,13.926-0.196  l71.481-49.381l71.474,49.381c4.316,2.6,9.241,2.675,13.629,0.196c4.387-2.479,6.581-7.128,6.581-12.168V12.627  C240.219,4.908,234.993,0,227.275,0z M148.552,119.055c-9.796,0-35.476-18.276-35.476-36.014c0-9.796,7.942-17.738,17.738-17.738  c9.796,0,17.738,7.942,17.738,17.738c0-9.796,7.942-17.738,17.738-17.738c9.796,0,17.738,7.942,17.738,17.738  C184.028,100.779,158.348,119.055,148.552,119.055z" fill="#ff4f38"/>
<g>
</g>
<g>
</g>
<g>
</g>
<g>
</g>
<g>
</g>
<g>
</g>
<g>
</g>
<g>
</g>
<g>
</g>
<g>
</g>
<g>
</g>
<g>
</g>
<g>
</g>
<g>
</g>
<g>
</g>
</svg>
